<?xml version="1.0" encoding="utf-8"?>
<!-- Generator: Adobe Illustrator 16.0.4, SVG Export Plug-In . SVG Version: 6.00 Build 0)  -->
<!DOCTYPE svg PUBLIC "-//W3C//DTD SVG 1.1//EN" "http://www.w3.org/Graphics/SVG/1.1/DTD/svg11.dtd">
<svg version="1.1" id="gr_x5F_icon23_x5F_templateComments_x5F_01"
	 xmlns="http://www.w3.org/2000/svg" xmlns:xlink="http://www.w3.org/1999/xlink" x="0px" y="0px" width="250px" height="250px"
	 viewBox="0 0 250 250" enable-background="new 0 0 250 250" xml:space="preserve">
<g id="gr_x5F_big_65_">
	<path id="gr_273_" fill="#F3BA48" d="M237.666,172.701c0,9.539-6.756,21.251-15.021,26.019l-82.621,47.702
		c-8.262,4.771-21.781,4.771-30.043,0L27.356,198.72c-8.262-4.768-15.021-16.479-15.021-26.019V77.298
		c0-9.539,6.759-21.25,15.021-26.019L109.98,3.579c8.263-4.771,21.782-4.771,30.043,0l82.621,47.701
		c8.266,4.768,15.021,16.479,15.021,26.019V172.701z"/>
	<path fill="#FFFFFF" d="M160.611,77.236H89.665c-14.928,0-27.027,12.088-27.027,26.998v42.599c0,14.91,12.099,27.002,27.027,27.002
		h46.714l6.822,13.487c1.678,3.31,4.418,3.31,6.096,0l6.822-13.487h4.492c14.928,0,27.027-12.092,27.027-27.002v-42.599
		C187.639,89.324,175.539,77.236,160.611,77.236z M93.787,133.521c-4.144,0-7.499-3.355-7.499-7.488
		c0-4.136,3.355-7.488,7.499-7.488c4.137,0,7.495,3.352,7.495,7.488C101.282,130.165,97.923,133.521,93.787,133.521z
		 M125.141,133.521c-4.144,0-7.498-3.355-7.498-7.488c0-4.136,3.354-7.488,7.498-7.488c4.136,0,7.492,3.352,7.492,7.488
		C132.633,130.165,129.277,133.521,125.141,133.521z M156.496,133.521c-4.145,0-7.498-3.355-7.498-7.488
		c0-4.136,3.354-7.488,7.498-7.488c4.137,0,7.494,3.352,7.494,7.488C163.99,130.165,160.633,133.521,156.496,133.521z"/>
</g>
</svg>
